<svg width="32" height="32" viewBox="0 0 32 32" fill="none" xmlns="http://www.w3.org/2000/svg">
<path d="M21.333 17.3325C20.712 18.1605 19.9068 18.8325 18.9811 19.2954C18.0554 19.7582 17.0346 19.9992 15.9997 19.9992C14.9647 19.9992 13.944 19.7582 13.0183 19.2954C12.0925 18.8325 11.2873 18.1605 10.6663 17.3325C10.1437 18.037 9.48606 18.6304 8.73172 19.0781C7.97738 19.5257 7.14145 19.8187 6.2727 19.94C5.40394 20.0613 4.51974 20.0083 3.67165 19.7843C2.82356 19.5603 2.02856 19.1696 1.33301 18.6352V25.3325C1.33512 27.1 2.03818 28.7944 3.28797 30.0442C4.53775 31.294 6.23221 31.9971 7.99967 31.9992H23.9997C25.7671 31.9971 27.4616 31.294 28.7114 30.0442C29.9612 28.7944 30.6642 27.1 30.6663 25.3325V18.6312C29.971 19.1659 29.1762 19.5568 28.3283 19.7811C27.4804 20.0054 26.5963 20.0587 25.7275 19.9378C24.8588 19.817 24.0228 19.5243 23.2683 19.077C22.5138 18.6297 21.8559 18.0367 21.333 17.3325Z" fill="#003049"/>
<path d="M28.933 4.17525C28.6749 2.98737 28.0164 1.92431 27.0677 1.16426C26.119 0.404207 24.9379 -0.00664129 23.7223 0.000581925H22.6663V4.00058C22.6663 4.3542 22.5259 4.69334 22.2758 4.94339C22.0258 5.19344 21.6866 5.33392 21.333 5.33392C20.9794 5.33392 20.6402 5.19344 20.3902 4.94339C20.1402 4.69334 19.9997 4.3542 19.9997 4.00058V0.000581925H11.9997V4.00058C11.9997 4.3542 11.8592 4.69334 11.6091 4.94339C11.3591 5.19344 11.02 5.33392 10.6663 5.33392C10.3127 5.33392 9.97358 5.19344 9.72353 4.94339C9.47348 4.69334 9.33301 4.3542 9.33301 4.00058V0.000581925H8.27701C7.06126 -0.00657606 5.88 0.404462 4.93131 1.16478C3.98261 1.92509 3.32416 2.98846 3.06634 4.17658L1.36234 11.8672L1.33301 13.3606C1.33476 13.8859 1.43996 14.4057 1.64259 14.8903C1.84523 15.3749 2.14134 15.8149 2.51401 16.1851C3.26665 16.9328 4.28548 17.3508 5.34634 17.3472C5.87163 17.3455 6.39143 17.2403 6.87606 17.0377C7.36069 16.835 7.80067 16.5389 8.17086 16.1662C8.54106 15.7936 8.83423 15.3516 9.03363 14.8657C9.23303 14.3797 9.33476 13.8592 9.33301 13.3339C9.33301 12.9803 9.47348 12.6412 9.72353 12.3911C9.97358 12.1411 10.3127 12.0006 10.6663 12.0006C11.02 12.0006 11.3591 12.1411 11.6091 12.3911C11.8592 12.6412 11.9997 12.9803 11.9997 13.3339C11.9997 14.3948 12.4211 15.4122 13.1712 16.1623C13.9214 16.9125 14.9388 17.3339 15.9997 17.3339C17.0605 17.3339 18.078 16.9125 18.8281 16.1623C19.5782 15.4122 19.9997 14.3948 19.9997 13.3339C19.9997 12.9803 20.1402 12.6412 20.3902 12.3911C20.6402 12.1411 20.9794 12.0006 21.333 12.0006C21.6866 12.0006 22.0258 12.1411 22.2758 12.3911C22.5259 12.6412 22.6663 12.9803 22.6663 13.3339C22.6663 14.3948 23.0878 15.4122 23.8379 16.1623C24.5881 16.9125 25.6055 17.3339 26.6663 17.3339C27.7272 17.3339 28.7446 16.9125 29.4948 16.1623C30.2449 15.4122 30.6663 14.3948 30.6663 13.3339V12.1432L28.933 4.17525Z" fill="#003049"/>
</svg>
