<svg width="32" height="32" viewBox="0 0 32 32" fill="none" xmlns="http://www.w3.org/2000/svg">
<g id="fi-rr-sign-out" clip-path="url(#clip0_662_4287)">
<path id="Vector" d="M30.4385 12.2282L25.2665 7.05617C25.0151 6.81329 24.6782 6.6789 24.3287 6.68194C23.9791 6.68497 23.6446 6.8252 23.3974 7.07241C23.1502 7.31962 23.01 7.65404 23.007 8.00363C23.0039 8.35323 23.1383 8.69003 23.3812 8.9415L28.5532 14.1135C28.7068 14.2702 28.8411 14.4448 28.9532 14.6335C28.9332 14.6335 28.9172 14.6228 28.8972 14.6228L7.98519 14.6655C7.63157 14.6655 7.29243 14.806 7.04238 15.056C6.79233 15.3061 6.65186 15.6452 6.65186 15.9988C6.65186 16.3525 6.79233 16.6916 7.04238 16.9416C7.29243 17.1917 7.63157 17.3322 7.98519 17.3322L28.8892 17.2895C28.9265 17.2895 28.9572 17.2708 28.9932 17.2682C28.8749 17.4937 28.725 17.7012 28.5479 17.8842L23.3759 23.0562C23.2485 23.1792 23.1469 23.3263 23.0771 23.489C23.0072 23.6516 22.9704 23.8266 22.9689 24.0036C22.9673 24.1807 23.0011 24.3562 23.0681 24.5201C23.1351 24.684 23.2341 24.8328 23.3593 24.958C23.4845 25.0832 23.6334 25.1822 23.7972 25.2493C23.9611 25.3163 24.1367 25.35 24.3137 25.3485C24.4908 25.347 24.6657 25.3102 24.8284 25.2403C24.9911 25.1704 25.1382 25.0688 25.2612 24.9415L30.4332 19.7695C31.433 18.7694 31.9947 17.413 31.9947 15.9988C31.9947 14.5846 31.433 13.2283 30.4332 12.2282H30.4385Z" fill="#6C6C6C"/>
<path id="Vector_2" d="M9.33333 29.3333H6.66667C5.6058 29.3333 4.58839 28.9119 3.83824 28.1618C3.08809 27.4116 2.66667 26.3942 2.66667 25.3333V6.66667C2.66667 5.6058 3.08809 4.58839 3.83824 3.83824C4.58839 3.08809 5.6058 2.66667 6.66667 2.66667H9.33333C9.68696 2.66667 10.0261 2.52619 10.2761 2.27614C10.5262 2.02609 10.6667 1.68696 10.6667 1.33333C10.6667 0.979711 10.5262 0.640573 10.2761 0.390524C10.0261 0.140476 9.68696 0 9.33333 0L6.66667 0C4.89921 0.00211714 3.20474 0.705176 1.95496 1.95496C0.705176 3.20474 0.00211714 4.89921 0 6.66667L0 25.3333C0.00211714 27.1008 0.705176 28.7953 1.95496 30.045C3.20474 31.2948 4.89921 31.9979 6.66667 32H9.33333C9.68696 32 10.0261 31.8595 10.2761 31.6095C10.5262 31.3594 10.6667 31.0203 10.6667 30.6667C10.6667 30.313 10.5262 29.9739 10.2761 29.7239C10.0261 29.4738 9.68696 29.3333 9.33333 29.3333Z" fill="#6C6C6C"/>
</g>
<defs>
<clipPath id="clip0_662_4287">
<rect width="32" height="32" fill="white"/>
</clipPath>
</defs>
</svg>
