<svg width="32" height="32" viewBox="0 0 32 32" fill="none" xmlns="http://www.w3.org/2000/svg">
<g clip-path="url(#clip0_620_10895)">
<path d="M9.33317 32.0008C10.8059 32.0008 11.9998 30.8069 11.9998 29.3342C11.9998 27.8614 10.8059 26.6675 9.33317 26.6675C7.86041 26.6675 6.6665 27.8614 6.6665 29.3342C6.6665 30.8069 7.86041 32.0008 9.33317 32.0008Z" fill="#6C6C6C"/>
<path d="M22.6667 32.0008C24.1394 32.0008 25.3333 30.8069 25.3333 29.3342C25.3333 27.8614 24.1394 26.6675 22.6667 26.6675C21.1939 26.6675 20 27.8614 20 29.3342C20 30.8069 21.1939 32.0008 22.6667 32.0008Z" fill="#6C6C6C"/>
<path d="M31.5799 1.78052C31.3298 1.53056 30.9907 1.39014 30.6372 1.39014C30.2836 1.39014 29.9446 1.53056 29.6945 1.78052L22.8159 8.66585L20.7479 6.50719C20.6265 6.38094 20.4815 6.27983 20.3211 6.20963C20.1607 6.13944 19.988 6.10152 19.8129 6.09805C19.6378 6.09459 19.4638 6.12564 19.3007 6.18943C19.1377 6.25322 18.9888 6.34851 18.8625 6.46985C18.7363 6.59119 18.6352 6.73621 18.565 6.89663C18.4948 7.05704 18.4569 7.22972 18.4534 7.40479C18.4464 7.75836 18.5801 8.10022 18.8252 8.35519L20.9772 10.5939C21.2065 10.8415 21.4836 11.0401 21.7919 11.1776C22.1001 11.3151 22.433 11.3887 22.7705 11.3939H22.8145C23.1453 11.3949 23.4729 11.3303 23.7785 11.2038C24.0841 11.0772 24.3614 10.8912 24.5945 10.6565L31.5799 3.66585C31.8298 3.41582 31.9702 3.07674 31.9702 2.72319C31.9702 2.36963 31.8298 2.03056 31.5799 1.78052V1.78052Z" fill="#6C6C6C"/>
<path d="M29.2 12.0213C29.0276 11.9902 28.8508 11.9933 28.6796 12.0305C28.5084 12.0678 28.3463 12.1384 28.2024 12.2383C28.0585 12.3382 27.9357 12.4655 27.841 12.6129C27.7464 12.7603 27.6817 12.9249 27.6507 13.0973L27.48 14.0427C27.3137 14.9658 26.8282 15.8011 26.1085 16.4026C25.3888 17.0041 24.4806 17.3335 23.5427 17.3333H7.224L5.97067 6.66667H14.6667C15.0203 6.66667 15.3594 6.52619 15.6095 6.27614C15.8595 6.02609 16 5.68696 16 5.33333C16 4.97971 15.8595 4.64057 15.6095 4.39052C15.3594 4.14048 15.0203 4 14.6667 4H5.656L5.6 3.53067C5.4851 2.55813 5.01741 1.66154 4.28558 1.01081C3.55375 0.360072 2.60863 0.000417115 1.62933 0L1.33333 0C0.979711 0 0.640573 0.140476 0.390524 0.390524C0.140476 0.640573 0 0.979711 0 1.33333C0 1.68696 0.140476 2.02609 0.390524 2.27614C0.640573 2.52619 0.979711 2.66667 1.33333 2.66667H1.62933C1.95591 2.66671 2.27112 2.78661 2.51516 3.00362C2.75921 3.22063 2.91512 3.51967 2.95333 3.844L4.788 19.444C4.97847 21.0664 5.75797 22.5624 6.97854 23.648C8.19912 24.7337 9.77581 25.3334 11.4093 25.3333H25.3333C25.687 25.3333 26.0261 25.1929 26.2761 24.9428C26.5262 24.6928 26.6667 24.3536 26.6667 24C26.6667 23.6464 26.5262 23.3072 26.2761 23.0572C26.0261 22.8071 25.687 22.6667 25.3333 22.6667H11.4093C10.582 22.6668 9.77502 22.4105 9.09948 21.9329C8.42394 21.4553 7.9131 20.78 7.63733 20H23.5427C25.1057 20.0001 26.6191 19.451 27.8184 18.4486C29.0177 17.4462 29.8267 16.0543 30.104 14.516L30.2747 13.5693C30.3372 13.2216 30.2592 12.8632 30.0577 12.573C29.8562 12.2827 29.5477 12.0843 29.2 12.0213Z" fill="#6C6C6C"/>
</g>
<defs>
<clipPath id="clip0_620_10895">
<rect width="32" height="32" fill="white"/>
</clipPath>
</defs>
</svg>
