<svg width="32" height="29" viewBox="0 0 32 29" fill="none" xmlns="http://www.w3.org/2000/svg">
<path d="M23.3334 0.555378C21.832 0.578731 20.3634 0.997849 19.0758 1.77041C17.7882 2.54296 16.7273 3.6416 16.0001 4.95538C15.273 3.6416 14.212 2.54296 12.9244 1.77041C11.6368 0.997849 10.1682 0.578731 8.66677 0.555378C6.27336 0.659366 4.01838 1.70638 2.39448 3.46769C0.770587 5.22899 -0.0902269 7.56141 0.000107148 9.95538C0.000107148 16.018 6.38144 22.6394 11.7334 27.1287C12.9284 28.1329 14.4392 28.6834 16.0001 28.6834C17.561 28.6834 19.0718 28.1329 20.2668 27.1287C25.6188 22.6394 32.0001 16.018 32.0001 9.95538C32.0904 7.56141 31.2296 5.22899 29.6057 3.46769C27.9818 1.70638 25.7269 0.659366 23.3334 0.555378ZM18.5534 25.0887C17.8388 25.6905 16.9344 26.0206 16.0001 26.0206C15.0658 26.0206 14.1615 25.6905 13.4468 25.0887C6.59611 19.3407 2.66677 13.826 2.66677 9.95538C2.57563 8.26833 3.15526 6.61368 4.27926 5.35231C5.40325 4.09094 6.98042 3.32518 8.66677 3.22204C10.3531 3.32518 11.9303 4.09094 13.0543 5.35231C14.1783 6.61368 14.7579 8.26833 14.6668 9.95538C14.6668 10.309 14.8072 10.6481 15.0573 10.8982C15.3073 11.1482 15.6465 11.2887 16.0001 11.2887C16.3537 11.2887 16.6929 11.1482 16.9429 10.8982C17.193 10.6481 17.3334 10.309 17.3334 9.95538C17.2423 8.26833 17.8219 6.61368 18.9459 5.35231C20.0699 4.09094 21.6471 3.32518 23.3334 3.22204C25.0198 3.32518 26.597 4.09094 27.721 5.35231C28.845 6.61368 29.4246 8.26833 29.3334 9.95538C29.3334 13.826 25.4041 19.3407 18.5534 25.0834V25.0887Z" fill="#6C6C6C"/>
</svg>
