<svg width="32" height="32" viewBox="0 0 32 32" fill="none"  xmlns="http://www.w3.org/2000/svg">
<g clip-path="url(#clip0_649_4050)">
<path d="M32 13.3335C32.0001 13.2362 31.9893 13.1391 31.968 13.0442L30.2347 5.22017C29.9126 3.73516 29.0898 2.40602 27.9042 1.45562C26.7185 0.505215 25.2422 -0.00865414 23.7227 0.000172887H8.27734C6.75874 -0.00742752 5.28364 0.507002 4.09911 1.4573C2.91457 2.4076 2.09253 3.73606 1.77067 5.22017L0.0320018 13.0442C0.0106793 13.1391 -5.28798e-05 13.2362 1.82586e-06 13.3335V14.6668C-0.00107392 15.965 0.47323 17.2186 1.33334 18.1908V25.3335C1.33545 27.101 2.03851 28.7954 3.2883 30.0452C4.53808 31.295 6.23254 31.9981 8 32.0002H24C25.7675 31.9981 27.4619 31.295 28.7117 30.0452C29.9615 28.7954 30.6646 27.101 30.6667 25.3335V18.1908C31.5268 17.2186 32.0011 15.965 32 14.6668V13.3335ZM2.66667 13.4788L4.37334 5.79884C4.56673 4.90851 5.06002 4.11161 5.77069 3.54148C6.48135 2.97134 7.36625 2.66258 8.27734 2.66684H9.33334V6.66684C9.33334 7.02046 9.47381 7.3596 9.72386 7.60965C9.97391 7.8597 10.313 8.00017 10.6667 8.00017C11.0203 8.00017 11.3594 7.8597 11.6095 7.60965C11.8595 7.3596 12 7.02046 12 6.66684V2.66684H20V6.66684C20 7.02046 20.1405 7.3596 20.3905 7.60965C20.6406 7.8597 20.9797 8.00017 21.3333 8.00017C21.687 8.00017 22.0261 7.8597 22.2761 7.60965C22.5262 7.3596 22.6667 7.02046 22.6667 6.66684V2.66684H23.7227C24.6338 2.66258 25.5187 2.97134 26.2293 3.54148C26.94 4.11161 27.4333 4.90851 27.6267 5.79884L29.3333 13.4788V14.6668C29.3333 15.3741 29.0524 16.0524 28.5523 16.5525C28.0522 17.0526 27.3739 17.3335 26.6667 17.3335H25.3333C24.6261 17.3335 23.9478 17.0526 23.4477 16.5525C22.9476 16.0524 22.6667 15.3741 22.6667 14.6668C22.6667 14.3132 22.5262 13.9741 22.2761 13.724C22.0261 13.474 21.687 13.3335 21.3333 13.3335C20.9797 13.3335 20.6406 13.474 20.3905 13.724C20.1405 13.9741 20 14.3132 20 14.6668C20 15.3741 19.719 16.0524 19.219 16.5525C18.7189 17.0526 18.0406 17.3335 17.3333 17.3335H14.6667C13.9594 17.3335 13.2811 17.0526 12.7811 16.5525C12.281 16.0524 12 15.3741 12 14.6668C12 14.3132 11.8595 13.9741 11.6095 13.724C11.3594 13.474 11.0203 13.3335 10.6667 13.3335C10.313 13.3335 9.97391 13.474 9.72386 13.724C9.47381 13.9741 9.33334 14.3132 9.33334 14.6668C9.33334 15.3741 9.05238 16.0524 8.55229 16.5525C8.05219 17.0526 7.37391 17.3335 6.66667 17.3335H5.33334C4.62609 17.3335 3.94781 17.0526 3.44772 16.5525C2.94762 16.0524 2.66667 15.3741 2.66667 14.6668V13.4788ZM24 29.3335H8C6.93914 29.3335 5.92172 28.9121 5.17158 28.1619C4.42143 27.4118 4 26.3944 4 25.3335V19.8308C4.43547 19.9436 4.88351 20.0005 5.33334 20.0002H6.66667C7.42376 20.0006 8.17221 19.8394 8.86201 19.5274C9.55181 19.2153 10.1671 18.7597 10.6667 18.1908C11.1663 18.7597 11.7815 19.2153 12.4713 19.5274C13.1611 19.8394 13.9096 20.0006 14.6667 20.0002H17.3333C18.0904 20.0006 18.8389 19.8394 19.5287 19.5274C20.2185 19.2153 20.8337 18.7597 21.3333 18.1908C21.8329 18.7597 22.4482 19.2153 23.138 19.5274C23.8278 19.8394 24.5763 20.0006 25.3333 20.0002H26.6667C27.1165 20.0005 27.5645 19.9436 28 19.8308V25.3335C28 26.3944 27.5786 27.4118 26.8284 28.1619C26.0783 28.9121 25.0609 29.3335 24 29.3335Z" fill="currentColor"/>
</g>

</svg>
