<svg width="25" height="32" viewBox="0 0 25 32" fill="none" xmlns="http://www.w3.org/2000/svg">
<path d="M2.992 32V21.132H0.44V17.876H2.992V14.708H0.44V11.452H2.992V0.583998H9.9L13.332 11.452H17.336V0.583998H22.22V11.452H24.728V14.708H22.22V17.876H24.728V21.132H22.22V32H15.268L11.748 21.132H7.876V32H2.992ZM7.876 17.876H10.78L9.812 14.708H7.788L7.876 17.876ZM17.468 25.136H17.688L17.512 21.132H16.324L17.468 25.136ZM7.7 11.452H8.932L7.656 7.228H7.48L7.7 11.452ZM15.4 17.876H17.424L17.336 14.708H14.388L15.4 17.876Z" fill="#6C6C6C"/>
</svg>
