<svg width="32" height="32" viewBox="0 0 32 32" fill="none" xmlns="http://www.w3.org/2000/svg">
<g clip-path="url(#clip0_649_4017)">
<path d="M16 15.9999C17.5823 15.9999 19.129 15.5307 20.4446 14.6517C21.7602 13.7726 22.7855 12.5232 23.391 11.0614C23.9965 9.59958 24.155 7.99105 23.8463 6.4392C23.5376 4.88735 22.7757 3.46189 21.6569 2.34307C20.538 1.22425 19.1126 0.462319 17.5607 0.153637C16.0089 -0.155044 14.4003 0.00338236 12.9385 0.608883C11.4767 1.21438 10.2273 2.23976 9.34824 3.55536C8.46919 4.87095 8 6.41767 8 7.99992C8.00212 10.121 8.84565 12.1546 10.3455 13.6544C11.8453 15.1543 13.8789 15.9978 16 15.9999ZM16 2.66659C17.0548 2.66659 18.086 2.97938 18.963 3.56542C19.8401 4.15145 20.5237 4.9844 20.9274 5.95894C21.331 6.93348 21.4366 8.00584 21.2309 9.0404C21.0251 10.075 20.5171 11.0253 19.7712 11.7712C19.0254 12.517 18.075 13.025 17.0405 13.2308C16.0059 13.4366 14.9336 13.3309 13.959 12.9273C12.9845 12.5236 12.1515 11.84 11.5655 10.963C10.9795 10.0859 10.6667 9.05475 10.6667 7.99992C10.6667 6.58543 11.2286 5.22888 12.2288 4.22868C13.229 3.22849 14.5855 2.66659 16 2.66659Z" fill="#6C6C6C"/>
<path d="M16 18.6675C12.8185 18.671 9.76829 19.9364 7.51862 22.1861C5.26894 24.4358 4.00353 27.486 4 30.6675C4 31.0211 4.14048 31.3602 4.39052 31.6103C4.64057 31.8603 4.97971 32.0008 5.33333 32.0008C5.68696 32.0008 6.02609 31.8603 6.27614 31.6103C6.52619 31.3602 6.66667 31.0211 6.66667 30.6675C6.66667 28.1921 7.65 25.8182 9.40034 24.0678C11.1507 22.3175 13.5246 21.3341 16 21.3341C18.4754 21.3341 20.8493 22.3175 22.5997 24.0678C24.35 25.8182 25.3333 28.1921 25.3333 30.6675C25.3333 31.0211 25.4738 31.3602 25.7239 31.6103C25.9739 31.8603 26.313 32.0008 26.6667 32.0008C27.0203 32.0008 27.3594 31.8603 27.6095 31.6103C27.8595 31.3602 28 31.0211 28 30.6675C27.9965 27.486 26.7311 24.4358 24.4814 22.1861C22.2317 19.9364 19.1815 18.671 16 18.6675Z" fill="#6C6C6C"/>
</g>
<defs>
<clipPath id="clip0_649_4017">
<rect width="32" height="32" fill="white"/>
</clipPath>
</defs>
</svg>
